<?xml version="1.0" encoding="UTF-8"?>
<svg width="200" height="200" viewBox="0 0 200 200" fill="none" xmlns="http://www.w3.org/2000/svg">
  <!-- Background Circle -->
  <circle cx="100" cy="100" r="90" fill="#f97316"/>
  
  <!-- Shopping Cart Icon -->
  <path d="M50 60H170L155 120H65L50 60ZM65 140H155M80 150C80 155.523 75.5228 160 70 160C64.4772 160 60 155.523 60 150C60 144.477 64.4772 140 70 140C75.5228 140 80 144.477 80 150ZM150 150C150 155.523 145.523 160 140 160C134.477 160 130 155.523 130 150C130 144.477 134.477 140 140 140C145.523 140 150 144.477 150 150Z" stroke="white" stroke-width="8" stroke-linecap="round" stroke-linejoin="round"/>
  
  <!-- Company Name -->
  <path d="M60 90H140" stroke="white" stroke-width="8" stroke-linecap="round"/>
</svg>
